<svg width="102" height="24" viewBox="0 0 102 24" fill="none" xmlns="http://www.w3.org/2000/svg">
<path d="M0.791995 23.4301C0.571995 23.4301 0.384995 23.3531 0.230995 23.1991C0.0769949 23.0451 -5.07385e-06 22.8581 -5.07385e-06 22.6381V1.15505C-5.07385e-06 0.913052 0.0769949 0.715052 0.230995 0.561053C0.384995 0.407052 0.571995 0.330052 0.791995 0.330052H15.312C15.554 0.330052 15.752 0.407052 15.906 0.561053C16.06 0.715052 16.137 0.913052 16.137 1.15505V3.33305C16.137 3.55305 16.06 3.74005 15.906 3.89405C15.752 4.04805 15.554 4.12505 15.312 4.12505H4.455V9.96605H14.586C14.828 9.96605 15.026 10.0431 15.18 10.1971C15.334 10.3291 15.411 10.5161 15.411 10.7581V12.8041C15.411 13.0461 15.334 13.2441 15.18 13.3981C15.026 13.5301 14.828 13.5961 14.586 13.5961H4.455V19.6351H15.576C15.818 19.6351 16.016 19.7121 16.17 19.8661C16.324 20.0201 16.401 20.2181 16.401 20.4601V22.6381C16.401 22.8581 16.324 23.0451 16.17 23.1991C16.016 23.3531 15.818 23.4301 15.576 23.4301H0.791995Z" fill="#FF6838"/>
<path d="M22.9703 23.4301C22.7503 23.4301 22.5633 23.3531 22.4093 23.1991C22.2553 23.0451 22.1783 22.8581 22.1783 22.6381V1.15505C22.1783 0.913052 22.2553 0.715052 22.4093 0.561053C22.5633 0.407052 22.7503 0.330052 22.9703 0.330052H37.2923C37.5343 0.330052 37.7323 0.407052 37.8863 0.561053C38.0403 0.715052 38.1173 0.913052 38.1173 1.15505V3.46505C38.1173 3.70705 38.0403 3.90505 37.8863 4.05905C37.7323 4.19105 37.5343 4.25705 37.2923 4.25705H26.6993V10.5271H36.6323C36.8743 10.5271 37.0723 10.6041 37.2263 10.7581C37.3803 10.9121 37.4573 11.1101 37.4573 11.3521V13.6621C37.4573 13.8821 37.3803 14.0691 37.2263 14.2231C37.0723 14.3771 36.8743 14.4541 36.6323 14.4541H26.6993V22.6381C26.6993 22.8581 26.6223 23.0451 26.4683 23.1991C26.3143 23.3531 26.1163 23.4301 25.8743 23.4301H22.9703ZM50.5194 23.7601C48.7594 23.7601 47.2744 23.4521 46.0644 22.8361C44.8764 22.2201 43.9634 21.3511 43.3254 20.2291C42.7094 19.1071 42.3574 17.7981 42.2694 16.3021C42.2474 15.9061 42.2364 15.4221 42.2364 14.8501C42.2364 14.2781 42.2474 13.7941 42.2694 13.3981C42.3574 11.8801 42.7204 10.5711 43.3584 9.47105C44.0184 8.34905 44.9424 7.48005 46.1304 6.86405C47.3404 6.24805 48.8034 5.94005 50.5194 5.94005C52.2354 5.94005 53.6874 6.24805 54.8754 6.86405C56.0854 7.48005 57.0094 8.34905 57.6474 9.47105C58.3074 10.5711 58.6814 11.8801 58.7694 13.3981C58.7914 13.7941 58.8024 14.2781 58.8024 14.8501C58.8024 15.4221 58.7914 15.9061 58.7694 16.3021C58.6814 17.7981 58.3184 19.1071 57.6804 20.2291C57.0644 21.3511 56.1514 22.2201 54.9414 22.8361C53.7534 23.4521 52.2794 23.7601 50.5194 23.7601ZM50.5194 20.4931C51.6854 20.4931 52.5874 20.1301 53.2254 19.4041C53.8634 18.6561 54.2154 17.5671 54.2814 16.1371C54.3034 15.8071 54.3144 15.3781 54.3144 14.8501C54.3144 14.3221 54.3034 13.8931 54.2814 13.5631C54.2154 12.1551 53.8634 11.0771 53.2254 10.3291C52.5874 9.58105 51.6854 9.20705 50.5194 9.20705C49.3534 9.20705 48.4514 9.58105 47.8134 10.3291C47.1754 11.0771 46.8234 12.1551 46.7574 13.5631C46.7354 13.8931 46.7244 14.3221 46.7244 14.8501C46.7244 15.3781 46.7354 15.8071 46.7574 16.1371C46.8234 17.5671 47.1754 18.6561 47.8134 19.4041C48.4514 20.1301 49.3534 20.4931 50.5194 20.4931ZM71.6987 23.7601C69.9387 23.7601 68.4537 23.4521 67.2437 22.8361C66.0557 22.2201 65.1427 21.3511 64.5047 20.2291C63.8887 19.1071 63.5367 17.7981 63.4487 16.3021C63.4267 15.9061 63.4157 15.4221 63.4157 14.8501C63.4157 14.2781 63.4267 13.7941 63.4487 13.3981C63.5367 11.8801 63.8997 10.5711 64.5377 9.47105C65.1977 8.34905 66.1217 7.48005 67.3097 6.86405C68.5197 6.24805 69.9827 5.94005 71.6987 5.94005C73.4147 5.94005 74.8667 6.24805 76.0547 6.86405C77.2647 7.48005 78.1887 8.34905 78.8267 9.47105C79.4867 10.5711 79.8607 11.8801 79.9487 13.3981C79.9707 13.7941 79.9817 14.2781 79.9817 14.8501C79.9817 15.4221 79.9707 15.9061 79.9487 16.3021C79.8607 17.7981 79.4977 19.1071 78.8597 20.2291C78.2437 21.3511 77.3307 22.2201 76.1207 22.8361C74.9327 23.4521 73.4587 23.7601 71.6987 23.7601ZM71.6987 20.4931C72.8647 20.4931 73.7667 20.1301 74.4047 19.4041C75.0427 18.6561 75.3947 17.5671 75.4607 16.1371C75.4827 15.8071 75.4937 15.3781 75.4937 14.8501C75.4937 14.3221 75.4827 13.8931 75.4607 13.5631C75.3947 12.1551 75.0427 11.0771 74.4047 10.3291C73.7667 9.58105 72.8647 9.20705 71.6987 9.20705C70.5327 9.20705 69.6307 9.58105 68.9927 10.3291C68.3547 11.0771 68.0027 12.1551 67.9367 13.5631C67.9147 13.8931 67.9037 14.3221 67.9037 14.8501C67.9037 15.3781 67.9147 15.8071 67.9367 16.1371C68.0027 17.5671 68.3547 18.6561 68.9927 19.4041C69.6307 20.1301 70.5327 20.4931 71.6987 20.4931ZM91.657 23.7601C90.513 23.7601 89.501 23.5731 88.621 23.1991C87.763 22.8031 87.048 22.2531 86.476 21.5491C85.904 20.8451 85.464 20.0201 85.156 19.0741C84.848 18.1061 84.672 17.0501 84.628 15.9061C84.606 15.5101 84.595 15.1581 84.595 14.8501C84.595 14.5201 84.606 14.1571 84.628 13.7611C84.672 12.6611 84.837 11.6381 85.123 10.6921C85.431 9.74605 85.871 8.92105 86.443 8.21705C87.037 7.49105 87.763 6.93005 88.621 6.53405C89.501 6.13805 90.513 5.94005 91.657 5.94005C92.845 5.94005 93.846 6.14905 94.66 6.56705C95.496 6.96305 96.189 7.48005 96.739 8.11805V0.792052C96.739 0.572052 96.805 0.385053 96.937 0.231053C97.091 0.0770528 97.289 5.24521e-05 97.531 5.24521e-05H100.336C100.556 5.24521e-05 100.743 0.0770528 100.897 0.231053C101.051 0.385053 101.128 0.572052 101.128 0.792052V22.6381C101.128 22.8581 101.051 23.0451 100.897 23.1991C100.743 23.3531 100.556 23.4301 100.336 23.4301H97.729C97.487 23.4301 97.289 23.3531 97.135 23.1991C97.003 23.0451 96.937 22.8581 96.937 22.6381V21.4171C96.387 22.0991 95.683 22.6601 94.825 23.1001C93.989 23.5401 92.933 23.7601 91.657 23.7601ZM92.878 20.2291C93.802 20.2291 94.539 20.0201 95.089 19.6021C95.639 19.1841 96.046 18.6561 96.31 18.0181C96.574 17.3581 96.717 16.6871 96.739 16.0051C96.761 15.6091 96.772 15.1911 96.772 14.7511C96.772 14.2891 96.761 13.8601 96.739 13.4641C96.717 12.8041 96.563 12.1771 96.277 11.5831C95.991 10.9671 95.573 10.4611 95.023 10.0651C94.473 9.66905 93.758 9.47105 92.878 9.47105C91.954 9.47105 91.217 9.68005 90.667 10.0981C90.139 10.4941 89.754 11.0221 89.512 11.6821C89.27 12.3421 89.127 13.0681 89.083 13.8601C89.061 14.5201 89.061 15.1801 89.083 15.8401C89.127 16.6321 89.27 17.3581 89.512 18.0181C89.754 18.6781 90.139 19.2171 90.667 19.6351C91.217 20.0311 91.954 20.2291 92.878 20.2291Z" fill="#363853"/>
</svg>
